<svg width="160" height="48" viewBox="0 0 160 48" fill="none" xmlns="http://www.w3.org/2000/svg">
<g clip-path="url(#clip0_32_909)">
<path fill-rule="evenodd" clip-rule="evenodd" d="M98.9311 37.5375C89.6642 44.3599 76.2322 48 64.6676 48C48.4521 48 33.854 42.0095 22.81 32.0462C21.9423 31.2627 22.7197 30.195 23.761 30.8051C35.6796 37.7316 50.4166 41.8986 65.6394 41.8986C75.906 41.8986 87.1999 39.777 97.5845 35.3742C99.1533 34.7086 100.465 36.4004 98.9311 37.5375Z" fill="#999999"/>
<path fill-rule="evenodd" clip-rule="evenodd" d="M102.784 33.1348C101.604 31.6233 94.9536 32.4206 91.9687 32.7743C91.0594 32.8852 90.9205 32.0948 91.7396 31.5262C97.036 27.803 105.727 28.8777 106.74 30.1257C107.754 31.3806 106.477 40.0821 101.499 44.2352C100.736 44.873 100.007 44.5333 100.347 43.6874C101.465 40.9002 103.971 34.6532 102.784 33.1348Z" fill="#999999"/>
<path fill-rule="evenodd" clip-rule="evenodd" d="M92.177 5.24169V1.62245C92.177 1.07471 92.5935 0.707245 93.0933 0.707245H109.316C109.836 0.707245 110.253 1.08165 110.253 1.62245V4.72169C110.246 5.24169 109.809 5.92116 109.031 6.99584L100.625 18.9837C103.749 18.9074 107.046 19.372 109.878 20.9667C110.517 21.3272 110.69 21.8541 110.739 22.3741V26.236C110.739 26.763 110.156 27.3801 109.545 27.0611C104.554 24.4472 97.9246 24.163 92.406 27.0889C91.8438 27.3939 91.2538 26.7838 91.2538 26.2568V22.5891C91.2538 21.9997 91.2607 20.9944 91.8507 20.1L101.59 6.14997H93.1141C92.5935 6.14997 92.177 5.7825 92.177 5.24169Z" fill="#999999"/>
<path fill-rule="evenodd" clip-rule="evenodd" d="M33.0002 27.8238H28.0647C27.5927 27.7891 27.2178 27.4355 27.1831 26.9848V1.68486C27.1831 1.17872 27.6066 0.77658 28.1341 0.77658H32.7364C33.2154 0.797366 33.5971 1.16485 33.6319 1.62245V4.92969H33.7221C34.923 1.73339 37.179 0.242706 40.2194 0.242706C43.3084 0.242706 45.2381 1.73339 46.6264 4.92969C47.8204 1.73339 50.5345 0.242706 53.4431 0.242706C55.5117 0.242706 57.7746 1.09551 59.156 3.00913C60.7178 5.13769 60.3985 8.22998 60.3985 10.9409L60.3916 26.9086C60.3916 27.4147 59.9681 27.8238 59.4406 27.8238H54.5121C54.0192 27.7891 53.6236 27.3939 53.6236 26.9086V13.4994C53.6236 12.4316 53.7207 9.7692 53.4847 8.75692C53.1168 7.05824 52.0131 6.57983 50.5831 6.57983C49.3892 6.57983 48.1397 7.37718 47.633 8.65293C47.1262 9.92867 47.1748 12.0642 47.1748 13.4994V26.9086C47.1748 27.4147 46.7514 27.8238 46.2238 27.8238H41.2953C40.7955 27.7891 40.4068 27.3939 40.4068 26.9086L40.3999 13.4994C40.3999 10.6775 40.865 6.52437 37.3595 6.52437C33.8123 6.52437 33.9512 10.5735 33.9512 13.4994V26.9086C33.9512 27.4147 33.5277 27.8238 33.0002 27.8238" fill="#999999"/>
<path fill-rule="evenodd" clip-rule="evenodd" d="M124.219 0.242706C131.543 0.242706 135.506 6.52437 135.506 14.5116C135.506 22.2285 131.126 28.3507 124.219 28.3507C117.028 28.3507 113.113 22.0691 113.113 14.2412C113.113 6.3649 117.076 0.242706 124.219 0.242706ZM124.261 5.40809C120.623 5.40809 120.394 10.3585 120.394 13.4439C120.394 16.5362 120.346 23.1368 124.219 23.1368C128.044 23.1368 128.224 17.812 128.224 14.5671C128.224 12.4316 128.134 9.88014 127.489 7.85558C126.933 6.0945 125.83 5.40809 124.261 5.40809Z" fill="#999999"/>
<path fill-rule="evenodd" clip-rule="evenodd" d="M145.002 27.8238H140.088C139.595 27.7891 139.199 27.3939 139.199 26.9086L139.192 1.60165C139.234 1.13711 139.643 0.77658 140.143 0.77658H144.718C145.148 0.797366 145.502 1.08858 145.599 1.48379V5.35262H145.689C147.071 1.89286 149.007 0.242706 152.416 0.242706C154.63 0.242706 156.789 1.04005 158.177 3.22407C159.468 5.24862 159.468 8.65292 159.468 11.1004V27.0264C159.413 27.4702 159.003 27.8238 158.517 27.8238H153.568C153.117 27.7891 152.742 27.4563 152.693 27.0264V13.2844C152.693 10.518 153.013 6.4689 149.604 6.4689C148.404 6.4689 147.3 7.27318 146.751 8.49345C146.057 10.0396 145.967 11.5788 145.967 13.2844V26.9086C145.96 27.4147 145.53 27.8238 145.002 27.8238" fill="#999999"/>
<path fill-rule="evenodd" clip-rule="evenodd" d="M79.2448 15.7389C79.2448 17.6594 79.2934 19.261 78.3216 20.9667C77.5372 22.3533 76.2877 23.2061 74.9064 23.2061C73.0113 23.2061 71.9007 21.764 71.9007 19.6354C71.9007 15.4338 75.6699 14.6711 79.2448 14.6711V15.7389ZM84.2219 27.7545C83.8957 28.0457 83.4237 28.0665 83.0558 27.8723C81.4175 26.5134 81.1191 25.8824 80.2236 24.5859C77.5164 27.3454 75.5936 28.1705 72.0881 28.1705C67.9301 28.1705 64.7023 25.612 64.7023 20.4883C64.7023 16.4877 66.868 13.7628 69.964 12.4316C72.6434 11.2529 76.3849 11.0449 79.2448 10.7191V10.0812C79.2448 8.90946 79.3351 7.52278 78.6409 6.5105C78.044 5.60222 76.8916 5.22782 75.8712 5.22782C73.9901 5.22782 72.3172 6.19156 71.9076 8.18838C71.8243 8.63212 71.4981 9.06893 71.0469 9.08973L66.2641 8.57665C65.8615 8.48652 65.4103 8.16065 65.5283 7.54358C66.6251 1.74725 71.8729 3.05176e-05 76.5654 3.05176e-05C78.9672 3.05176e-05 82.1048 0.637905 83.9998 2.45446C86.4016 4.69395 86.1725 7.68224 86.1725 10.934V18.6162C86.1725 20.9251 87.1305 21.9373 88.0329 23.1853C88.3452 23.6291 88.4146 24.163 88.012 24.4958C87.0055 25.3347 85.2146 26.8947 84.2289 27.7683L84.2219 27.7544" fill="#999999"/>
<path fill-rule="evenodd" clip-rule="evenodd" d="M14.5426 15.7389C14.5426 17.6594 14.5912 19.261 13.6193 20.9667C12.8349 22.3533 11.5924 23.2061 10.2041 23.2061C8.30904 23.2061 7.20534 21.764 7.20534 19.6354C7.20534 15.4338 10.9746 14.6711 14.5426 14.6711V15.7389ZM19.5197 27.7545C19.1934 28.0457 18.7214 28.0665 18.3535 27.8723C16.7153 26.5134 16.4237 25.8824 15.5213 24.5859C12.8141 27.3454 10.8982 28.1705 7.38582 28.1705C3.23476 28.1705 0 25.612 0 20.4883C0 16.4877 2.17271 13.7628 5.2617 12.4316C7.94114 11.2529 11.6826 11.0449 14.5426 10.7191V10.0812C14.5426 8.90946 14.6328 7.52278 13.9456 6.5105C13.3417 5.60222 12.1894 5.22782 11.1759 5.22782C9.29475 5.22782 7.61489 6.19156 7.20534 8.18838C7.12204 8.63212 6.79578 9.06893 6.35153 9.08973L1.56185 8.57665C1.15924 8.48652 0.714979 8.16065 0.826044 7.54358C1.92975 1.74725 7.17063 3.05176e-05 11.8631 3.05176e-05C14.2649 3.05176e-05 17.4025 0.637905 19.2975 2.45446C21.6993 4.69395 21.4702 7.68224 21.4702 10.934V18.6162C21.4702 20.9251 22.4282 21.9373 23.3306 23.1853C23.6499 23.6291 23.7193 24.163 23.3167 24.4958C22.3102 25.3347 20.5192 26.8947 19.5335 27.7683L19.5197 27.7544" fill="#999999"/>
</g>
<defs>
<clipPath id="clip0_32_909">
<rect width="159.468" height="48" fill="white"/>
</clipPath>
</defs>
</svg>
