<svg width="146" height="48" viewBox="0 0 146 48" fill="none" xmlns="http://www.w3.org/2000/svg">
<path d="M141.517 29.2609L145.575 31.9663C144.258 33.9063 141.107 37.2347 135.661 37.2347C128.897 37.2347 123.86 32.0019 123.86 25.3452C123.86 18.2614 128.951 13.4557 135.091 13.4557C141.267 13.4557 144.293 18.3682 145.272 21.0202L145.806 22.3728L129.894 28.9583C131.104 31.3433 132.991 32.5536 135.661 32.5536C138.331 32.5536 140.182 31.2366 141.517 29.2609ZM129.04 24.9714L139.666 20.5574C139.078 19.0801 137.334 18.03 135.252 18.03C132.6 18.03 128.915 20.3794 129.04 24.9714Z" fill="#999999"/>
<path d="M116.189 1.3349H121.315V36.149H116.189V1.3349Z" fill="#999999"/>
<path d="M108.109 14.3813H113.057V35.526C113.057 44.3007 107.877 47.9138 101.755 47.9138C95.9878 47.9138 92.5171 44.0338 91.2178 40.8834L95.7565 38.9967C96.5752 40.9368 98.5508 43.2328 101.755 43.2328C105.688 43.2328 108.109 40.7944 108.109 36.238V34.5293H107.931C106.756 35.9532 104.513 37.2347 101.666 37.2347C95.7209 37.2347 90.2745 32.0553 90.2745 25.3808C90.2745 18.6707 95.7209 13.438 101.666 13.438C104.496 13.438 106.756 14.7017 107.931 16.0899H108.109V14.3813ZM108.465 25.3808C108.465 21.1803 105.67 18.119 102.111 18.119C98.5152 18.119 95.4895 21.1803 95.4895 25.3808C95.4895 29.5279 98.5152 32.5359 102.111 32.5359C105.67 32.5537 108.465 29.5279 108.465 25.3808Z" fill="#999999"/>
<path d="M62.1349 25.2918C62.1349 32.1443 56.7953 37.1813 50.2455 37.1813C43.6956 37.1813 38.356 32.1265 38.356 25.2918C38.356 18.4038 43.6956 13.3846 50.2455 13.3846C56.7953 13.3846 62.1349 18.4038 62.1349 25.2918ZM56.9377 25.2918C56.9377 21.0202 53.8408 18.0834 50.2455 18.0834C46.6501 18.0834 43.5532 21.0202 43.5532 25.2918C43.5532 29.5279 46.6501 32.5002 50.2455 32.5002C53.8408 32.5002 56.9377 29.5279 56.9377 25.2918Z" fill="#999999"/>
<path d="M88.1031 25.3452C88.1031 32.1977 82.7635 37.2347 76.2136 37.2347C69.6637 37.2347 64.3241 32.1977 64.3241 25.3452C64.3241 18.4572 69.6637 13.4557 76.2136 13.4557C82.7635 13.4557 88.1031 18.4394 88.1031 25.3452ZM82.8881 25.3452C82.8881 21.0736 79.7911 18.1368 76.1958 18.1368C72.6005 18.1368 69.5035 21.0736 69.5035 25.3452C69.5035 29.5813 72.6005 32.5536 76.1958 32.5536C79.8089 32.5536 82.8881 29.5635 82.8881 25.3452Z" fill="#999999"/>
<path d="M18.8131 32.0197C11.3555 32.0197 5.51757 26.0038 5.51757 18.5461C5.51757 11.0885 11.3555 5.0726 18.8131 5.0726C22.8356 5.0726 25.7724 6.65668 27.9438 8.68572L31.5213 5.1082C28.4956 2.20703 24.4553 0 18.8131 0C8.59672 0 0 8.32975 0 18.5461C0 28.7625 8.59672 37.0923 18.8131 37.0923C24.3307 37.0923 28.4956 35.2768 31.7527 31.8951C35.0988 28.549 36.1312 23.8501 36.1312 20.0412C36.1312 18.8487 35.9888 17.6206 35.8286 16.7129H18.8131V21.6609H30.934C30.578 24.7579 29.5991 26.8759 28.1574 28.3176C26.4131 30.0796 23.6543 32.0197 18.8131 32.0197Z" fill="#999999"/>
</svg>
