<svg width="178" height="48" viewBox="0 0 178 48" fill="none" xmlns="http://www.w3.org/2000/svg">
<path d="M24.3991 44.9061C21.7298 45.3752 19.0135 45.5159 16.2037 45.8905L7.63339 20.7657V46.9689C4.9641 47.25 2.52892 47.625 0 48V0H7.11856L16.8593 27.2348V0H24.3991V44.9061ZM39.151 17.5781C42.0548 17.5781 46.5037 17.4375 49.173 17.4375V24.9373C45.8478 24.9373 41.961 24.9373 39.151 25.078V36.2344C43.5533 35.9533 47.9555 35.5779 52.4042 35.4373V42.6556L31.6578 44.2966V0H52.4042V7.50001H39.151V17.5781ZM80.2688 7.50018H72.4949V42.0001C69.966 42.0001 67.4371 42.0001 65.0022 42.0936V7.50018H57.2283V0H80.2692L80.2688 7.50018ZM92.4449 17.0627H102.701V24.5625H92.4449V41.5783H85.0919V0H106.026V7.50001H92.4449V17.0627ZM118.202 35.0156C122.464 35.1091 126.772 35.4378 130.94 35.6718V43.0781C124.244 42.6559 117.547 42.2346 110.709 42.0936V0H118.202V35.0156ZM137.262 43.5938C139.651 43.7346 142.18 43.8753 144.615 44.1561V0H137.262V43.5938ZM177.444 0L167.937 22.8282L177.444 48C174.634 47.625 171.824 47.1093 169.014 46.6405L163.629 32.7658L158.15 45.5159C155.433 45.0467 152.811 44.9061 150.095 44.5311L159.742 22.5467L151.031 0H159.086L164.003 12.6094L169.249 0H177.444V0Z" fill="#999999"/>
</svg>
