<svg width="188" height="48" viewBox="0 0 188 48" fill="none" xmlns="http://www.w3.org/2000/svg">
<path d="M60.0189 37.3795L62.3622 31.937C64.8945 33.8268 68.2583 34.8094 71.5843 34.8094C74.0409 34.8094 75.5906 33.8646 75.5906 32.4283C75.5528 28.422 60.8882 31.5591 60.7748 21.5055C60.737 16.4031 65.2724 12.4724 71.6976 12.4724C75.515 12.4724 79.3323 13.4173 82.0535 15.5717L79.8614 21.1276C77.3669 19.5402 74.2677 18.4063 71.3197 18.4063C69.3165 18.4063 67.9937 19.3512 67.9937 20.5606C68.0315 24.4913 82.8095 22.337 82.9606 31.937C82.9606 37.1528 78.5386 40.8189 72.189 40.8189C67.5402 40.8189 63.2693 39.7228 60.0189 37.3795ZM149.934 29.9717C148.762 32.0126 146.57 33.411 144.038 33.411C140.296 33.411 137.272 30.3874 137.272 26.6457C137.272 22.9039 140.296 19.8803 144.038 19.8803C146.57 19.8803 148.762 21.2787 149.934 23.3197L156.397 19.7291C153.978 15.4205 149.329 12.4724 144.038 12.4724C136.214 12.4724 129.865 18.822 129.865 26.6457C129.865 34.4693 136.214 40.8189 144.038 40.8189C149.367 40.8189 153.978 37.9087 156.397 33.5622L149.934 29.9717ZM86.211 0.718109H94.2992V40.2898H86.211V0.718109ZM159.572 0.718109V40.2898H167.66V28.422L177.26 40.2898H187.616L175.408 26.1921L186.709 13.0394H176.806L167.66 23.9622V0.718109H159.572ZM118.337 30.0472C117.165 31.9748 114.746 33.411 112.025 33.411C108.283 33.411 105.26 30.3874 105.26 26.6457C105.26 22.9039 108.283 19.8803 112.025 19.8803C114.746 19.8803 117.165 21.3921 118.337 23.3575V30.0472ZM118.337 13.0394V16.252C117.014 14.022 113.726 12.4724 110.287 12.4724C103.181 12.4724 97.5874 18.7465 97.5874 26.6079C97.5874 34.4693 103.181 40.8189 110.287 40.8189C113.726 40.8189 117.014 39.2693 118.337 37.0394V40.252H126.425V13.0394H118.337Z" fill="#999999"/>
<path d="M10.0157 30.0095C10.0157 32.7685 7.78583 34.9984 5.02677 34.9984C2.26772 34.9984 0.037796 32.7685 0.037796 30.0095C0.037796 27.2504 2.26772 25.0205 5.02677 25.0205H10.0157V30.0095ZM12.5102 30.0095C12.5102 27.2504 14.7402 25.0205 17.4992 25.0205C20.2583 25.0205 22.4882 27.2504 22.4882 30.0095V42.4819C22.4882 45.2409 20.2583 47.4709 17.4992 47.4709C14.7402 47.4709 12.5102 45.2409 12.5102 42.4819V30.0095Z" fill="#999999"/>
<path d="M17.4992 9.97795C14.7402 9.97795 12.5102 7.74803 12.5102 4.98898C12.5102 2.22992 14.7402 0 17.4992 0C20.2583 0 22.4882 2.22992 22.4882 4.98898V9.97795H17.4992ZM17.4992 12.5102C20.2583 12.5102 22.4882 14.7402 22.4882 17.4992C22.4882 20.2583 20.2583 22.4882 17.4992 22.4882H4.98898C2.22992 22.4882 0 20.2583 0 17.4992C0 14.7402 2.22992 12.5102 4.98898 12.5102H17.4992Z" fill="#999999"/>
<path d="M37.4929 17.4992C37.4929 14.7402 39.7228 12.5102 42.4819 12.5102C45.2409 12.5102 47.4709 14.7402 47.4709 17.4992C47.4709 20.2583 45.2409 22.4882 42.4819 22.4882H37.4929V17.4992ZM34.9984 17.4992C34.9984 20.2583 32.7685 22.4882 30.0094 22.4882C27.2504 22.4882 25.0205 20.2583 25.0205 17.4992V4.98898C25.0205 2.22992 27.2504 0 30.0094 0C32.7685 0 34.9984 2.22992 34.9984 4.98898V17.4992Z" fill="#999999"/>
<path d="M30.0094 37.4929C32.7685 37.4929 34.9984 39.7228 34.9984 42.4819C34.9984 45.2409 32.7685 47.4709 30.0094 47.4709C27.2504 47.4709 25.0205 45.2409 25.0205 42.4819V37.4929H30.0094ZM30.0094 34.9984C27.2504 34.9984 25.0205 32.7685 25.0205 30.0095C25.0205 27.2504 27.2504 25.0205 30.0094 25.0205H42.5197C45.2787 25.0205 47.5087 27.2504 47.5087 30.0095C47.5087 32.7685 45.2787 34.9984 42.5197 34.9984H30.0094Z" fill="#999999"/>
</svg>
